<mxfile host="app.diagrams.net" agent="Mozilla/5.0 (Windows NT 10.0; Win64; x64) AppleWebKit/537.36 (KHTML, like Gecko) Chrome/129.0.0.0 Safari/537.36" version="24.7.17">
  <diagram id="R2lEEEUBdFMjLlhIrx00" name="Page-1">
    <mxGraphModel dx="1332" dy="502" grid="1" gridSize="10" guides="1" tooltips="1" connect="1" arrows="1" fold="1" page="1" pageScale="1" pageWidth="850" pageHeight="1100" math="0" shadow="0" extFonts="Permanent Marker^https://fonts.googleapis.com/css?family=Permanent+Marker">
      <root>
        <mxCell id="0" />
        <mxCell id="1" parent="0" />
        <mxCell id="_cLSloztdKRhmM_iYa8v-1" value="utente" style="rounded=0;whiteSpace=wrap;html=1;" vertex="1" parent="1">
          <mxGeometry x="120" y="100" width="120" height="60" as="geometry" />
        </mxCell>
        <mxCell id="_cLSloztdKRhmM_iYa8v-9" value="" style="endArrow=none;html=1;rounded=0;exitX=1;exitY=0.5;exitDx=0;exitDy=0;entryX=0.35;entryY=1.067;entryDx=0;entryDy=0;entryPerimeter=0;startArrow=oval;startFill=0;" edge="1" parent="1" source="_cLSloztdKRhmM_iYa8v-74" target="_cLSloztdKRhmM_iYa8v-1">
          <mxGeometry width="50" height="50" relative="1" as="geometry">
            <mxPoint x="110" y="335" as="sourcePoint" />
            <mxPoint x="310" y="200" as="targetPoint" />
            <Array as="points">
              <mxPoint x="160" y="275" />
            </Array>
          </mxGeometry>
        </mxCell>
        <mxCell id="_cLSloztdKRhmM_iYa8v-10" value="" style="endArrow=none;html=1;rounded=0;exitX=1;exitY=0;exitDx=0;exitDy=0;entryX=0.325;entryY=1;entryDx=0;entryDy=0;entryPerimeter=0;startArrow=oval;startFill=0;" edge="1" parent="1" source="_cLSloztdKRhmM_iYa8v-73" target="_cLSloztdKRhmM_iYa8v-1">
          <mxGeometry width="50" height="50" relative="1" as="geometry">
            <mxPoint x="96.81980515339467" y="247.32233047033628" as="sourcePoint" />
            <mxPoint x="170" y="350" as="targetPoint" />
          </mxGeometry>
        </mxCell>
        <mxCell id="_cLSloztdKRhmM_iYa8v-14" value="" style="endArrow=none;html=1;rounded=0;exitX=1;exitY=0.25;exitDx=0;exitDy=0;entryX=0;entryY=1;entryDx=0;entryDy=0;startArrow=oval;startFill=0;" edge="1" parent="1" source="_cLSloztdKRhmM_iYa8v-72" target="_cLSloztdKRhmM_iYa8v-1">
          <mxGeometry width="50" height="50" relative="1" as="geometry">
            <mxPoint x="96.81980515339467" y="177.32233047033628" as="sourcePoint" />
            <mxPoint x="200" y="350" as="targetPoint" />
          </mxGeometry>
        </mxCell>
        <mxCell id="_cLSloztdKRhmM_iYa8v-15" value="" style="endArrow=oval;html=1;rounded=0;endFill=0;exitX=0;exitY=0.5;exitDx=0;exitDy=0;entryX=1;entryY=0.5;entryDx=0;entryDy=0;" edge="1" parent="1" source="_cLSloztdKRhmM_iYa8v-1" target="_cLSloztdKRhmM_iYa8v-67">
          <mxGeometry width="50" height="50" relative="1" as="geometry">
            <mxPoint x="80" y="130" as="sourcePoint" />
            <mxPoint x="100" y="100" as="targetPoint" />
          </mxGeometry>
        </mxCell>
        <mxCell id="_cLSloztdKRhmM_iYa8v-18" value="OBBIETTIVO" style="rounded=0;whiteSpace=wrap;html=1;" vertex="1" parent="1">
          <mxGeometry x="180" y="330" width="120" height="60" as="geometry" />
        </mxCell>
        <mxCell id="_cLSloztdKRhmM_iYa8v-23" value="" style="endArrow=none;html=1;rounded=0;entryX=0.833;entryY=1.033;entryDx=0;entryDy=0;entryPerimeter=0;exitX=0.5;exitY=0;exitDx=0;exitDy=0;" edge="1" parent="1" source="_cLSloztdKRhmM_iYa8v-24" target="_cLSloztdKRhmM_iYa8v-1">
          <mxGeometry width="50" height="50" relative="1" as="geometry">
            <mxPoint x="350" y="280" as="sourcePoint" />
            <mxPoint x="400" y="230" as="targetPoint" />
          </mxGeometry>
        </mxCell>
        <mxCell id="_cLSloztdKRhmM_iYa8v-24" value="&lt;span style=&quot;text-align: left;&quot;&gt;INSEGUE&lt;/span&gt;" style="rhombus;whiteSpace=wrap;html=1;" vertex="1" parent="1">
          <mxGeometry x="185" y="210" width="130" height="45" as="geometry" />
        </mxCell>
        <mxCell id="_cLSloztdKRhmM_iYa8v-26" value="" style="endArrow=none;html=1;rounded=0;exitX=0.5;exitY=1;exitDx=0;exitDy=0;entryX=0.5;entryY=0;entryDx=0;entryDy=0;" edge="1" parent="1" source="_cLSloztdKRhmM_iYa8v-24" target="_cLSloztdKRhmM_iYa8v-18">
          <mxGeometry width="50" height="50" relative="1" as="geometry">
            <mxPoint x="480" y="280" as="sourcePoint" />
            <mxPoint x="530" y="230" as="targetPoint" />
          </mxGeometry>
        </mxCell>
        <mxCell id="_cLSloztdKRhmM_iYa8v-27" value="1" style="text;strokeColor=none;fillColor=none;align=left;verticalAlign=middle;spacingLeft=4;spacingRight=4;overflow=hidden;points=[[0,0.5],[1,0.5]];portConstraint=eastwest;rotatable=0;whiteSpace=wrap;html=1;" vertex="1" parent="1">
          <mxGeometry x="240" y="160" width="20" height="30" as="geometry" />
        </mxCell>
        <mxCell id="_cLSloztdKRhmM_iYa8v-28" value="0,N" style="text;strokeColor=none;fillColor=none;align=left;verticalAlign=middle;spacingLeft=4;spacingRight=4;overflow=hidden;points=[[0,0.5],[1,0.5]];portConstraint=eastwest;rotatable=0;whiteSpace=wrap;html=1;" vertex="1" parent="1">
          <mxGeometry x="240" y="300" width="40" height="30" as="geometry" />
        </mxCell>
        <mxCell id="_cLSloztdKRhmM_iYa8v-33" value="" style="endArrow=none;html=1;rounded=0;exitX=1;exitY=0.25;exitDx=0;exitDy=0;entryX=0;entryY=0.5;entryDx=0;entryDy=0;startArrow=oval;startFill=0;" edge="1" parent="1" source="_cLSloztdKRhmM_iYa8v-75" target="_cLSloztdKRhmM_iYa8v-18">
          <mxGeometry width="50" height="50" relative="1" as="geometry">
            <mxPoint x="110" y="415" as="sourcePoint" />
            <mxPoint x="150" y="430" as="targetPoint" />
          </mxGeometry>
        </mxCell>
        <mxCell id="_cLSloztdKRhmM_iYa8v-34" value="" style="endArrow=none;html=1;rounded=0;exitX=0.5;exitY=0;exitDx=0;exitDy=0;entryX=0.083;entryY=1.033;entryDx=0;entryDy=0;entryPerimeter=0;startArrow=oval;startFill=0;" edge="1" parent="1" source="_cLSloztdKRhmM_iYa8v-77" target="_cLSloztdKRhmM_iYa8v-18">
          <mxGeometry width="50" height="50" relative="1" as="geometry">
            <mxPoint x="185" y="430" as="sourcePoint" />
            <mxPoint x="310" y="440" as="targetPoint" />
          </mxGeometry>
        </mxCell>
        <mxCell id="_cLSloztdKRhmM_iYa8v-35" value="" style="endArrow=none;html=1;rounded=0;exitX=0.25;exitY=0;exitDx=0;exitDy=0;entryX=0.608;entryY=1;entryDx=0;entryDy=0;entryPerimeter=0;startArrow=oval;startFill=0;" edge="1" parent="1" source="_cLSloztdKRhmM_iYa8v-78" target="_cLSloztdKRhmM_iYa8v-18">
          <mxGeometry width="50" height="50" relative="1" as="geometry">
            <mxPoint x="263.1801948466052" y="437.32233047033617" as="sourcePoint" />
            <mxPoint x="510" y="430" as="targetPoint" />
          </mxGeometry>
        </mxCell>
        <mxCell id="_cLSloztdKRhmM_iYa8v-37" value="" style="endArrow=none;html=1;rounded=0;entryX=1;entryY=0.5;entryDx=0;entryDy=0;startArrow=oval;startFill=0;" edge="1" parent="1" source="_cLSloztdKRhmM_iYa8v-80" target="_cLSloztdKRhmM_iYa8v-18">
          <mxGeometry width="50" height="50" relative="1" as="geometry">
            <mxPoint x="320" y="360" as="sourcePoint" />
            <mxPoint x="520" y="410" as="targetPoint" />
          </mxGeometry>
        </mxCell>
        <mxCell id="_cLSloztdKRhmM_iYa8v-38" value="" style="endArrow=none;html=1;rounded=0;exitX=0;exitY=0.5;exitDx=0;exitDy=0;entryX=1;entryY=0;entryDx=0;entryDy=0;startArrow=oval;startFill=0;" edge="1" parent="1" source="_cLSloztdKRhmM_iYa8v-81" target="_cLSloztdKRhmM_iYa8v-18">
          <mxGeometry width="50" height="50" relative="1" as="geometry">
            <mxPoint x="307" y="309" as="sourcePoint" />
            <mxPoint x="520" y="280" as="targetPoint" />
          </mxGeometry>
        </mxCell>
        <mxCell id="_cLSloztdKRhmM_iYa8v-40" value="" style="endArrow=none;html=1;rounded=0;exitX=0;exitY=0;exitDx=0;exitDy=0;entryX=1;entryY=1;entryDx=0;entryDy=0;startArrow=oval;startFill=0;" edge="1" parent="1" source="_cLSloztdKRhmM_iYa8v-79" target="_cLSloztdKRhmM_iYa8v-18">
          <mxGeometry width="50" height="50" relative="1" as="geometry">
            <mxPoint x="336.98" y="405" as="sourcePoint" />
            <mxPoint x="610" y="290" as="targetPoint" />
          </mxGeometry>
        </mxCell>
        <mxCell id="_cLSloztdKRhmM_iYa8v-41" value="ATTIVITA FISICA" style="rounded=0;whiteSpace=wrap;html=1;" vertex="1" parent="1">
          <mxGeometry x="425" y="100" width="120" height="60" as="geometry" />
        </mxCell>
        <mxCell id="_cLSloztdKRhmM_iYa8v-46" value="" style="endArrow=none;html=1;rounded=0;exitX=0;exitY=0.5;exitDx=0;exitDy=0;entryX=1;entryY=0.75;entryDx=0;entryDy=0;endFill=0;startArrow=oval;startFill=0;" edge="1" parent="1" source="_cLSloztdKRhmM_iYa8v-84" target="_cLSloztdKRhmM_iYa8v-41">
          <mxGeometry width="50" height="50" relative="1" as="geometry">
            <mxPoint x="623.96" y="140" as="sourcePoint" />
            <mxPoint x="690" y="190" as="targetPoint" />
          </mxGeometry>
        </mxCell>
        <mxCell id="_cLSloztdKRhmM_iYa8v-47" value="" style="endArrow=oval;html=1;rounded=0;exitX=0.825;exitY=-0.05;exitDx=0;exitDy=0;exitPerimeter=0;startArrow=none;startFill=0;endFill=0;" edge="1" parent="1" source="_cLSloztdKRhmM_iYa8v-41" target="_cLSloztdKRhmM_iYa8v-83">
          <mxGeometry width="50" height="50" relative="1" as="geometry">
            <mxPoint x="610" y="80" as="sourcePoint" />
            <mxPoint x="545" y="80" as="targetPoint" />
          </mxGeometry>
        </mxCell>
        <mxCell id="_cLSloztdKRhmM_iYa8v-49" value="" style="endArrow=none;html=1;rounded=0;exitX=1;exitY=0.5;exitDx=0;exitDy=0;entryX=0;entryY=0.5;entryDx=0;entryDy=0;" edge="1" parent="1" source="_cLSloztdKRhmM_iYa8v-50" target="_cLSloztdKRhmM_iYa8v-41">
          <mxGeometry width="50" height="50" relative="1" as="geometry">
            <mxPoint x="425" y="180" as="sourcePoint" />
            <mxPoint x="360" y="50" as="targetPoint" />
          </mxGeometry>
        </mxCell>
        <mxCell id="_cLSloztdKRhmM_iYa8v-50" value="&lt;span style=&quot;text-align: left;&quot;&gt;SVOLGE&lt;/span&gt;" style="rhombus;whiteSpace=wrap;html=1;" vertex="1" parent="1">
          <mxGeometry x="280" y="107.5" width="100" height="45" as="geometry" />
        </mxCell>
        <mxCell id="_cLSloztdKRhmM_iYa8v-51" value="" style="endArrow=none;html=1;rounded=0;exitX=0;exitY=0.5;exitDx=0;exitDy=0;entryX=1;entryY=0.5;entryDx=0;entryDy=0;" edge="1" parent="1" source="_cLSloztdKRhmM_iYa8v-50" target="_cLSloztdKRhmM_iYa8v-1">
          <mxGeometry width="50" height="50" relative="1" as="geometry">
            <mxPoint x="555" y="180" as="sourcePoint" />
            <mxPoint x="315" y="230" as="targetPoint" />
          </mxGeometry>
        </mxCell>
        <mxCell id="_cLSloztdKRhmM_iYa8v-52" value="0,N" style="text;strokeColor=none;fillColor=none;align=left;verticalAlign=middle;spacingLeft=4;spacingRight=4;overflow=hidden;points=[[0,0.5],[1,0.5]];portConstraint=eastwest;rotatable=0;whiteSpace=wrap;html=1;" vertex="1" parent="1">
          <mxGeometry x="240" y="100" width="40" height="30" as="geometry" />
        </mxCell>
        <mxCell id="_cLSloztdKRhmM_iYa8v-53" value="0,N" style="text;strokeColor=none;fillColor=none;align=left;verticalAlign=middle;spacingLeft=4;spacingRight=4;overflow=hidden;points=[[0,0.5],[1,0.5]];portConstraint=eastwest;rotatable=0;whiteSpace=wrap;html=1;" vertex="1" parent="1">
          <mxGeometry x="385" y="100" width="40" height="30" as="geometry" />
        </mxCell>
        <mxCell id="_cLSloztdKRhmM_iYa8v-87" style="edgeStyle=orthogonalEdgeStyle;rounded=0;orthogonalLoop=1;jettySize=auto;html=1;endArrow=oval;endFill=0;exitX=1;exitY=1;exitDx=0;exitDy=0;entryX=0;entryY=0;entryDx=0;entryDy=0;" edge="1" parent="1" source="_cLSloztdKRhmM_iYa8v-54" target="_cLSloztdKRhmM_iYa8v-86">
          <mxGeometry relative="1" as="geometry">
            <mxPoint x="740" y="300" as="sourcePoint" />
            <mxPoint x="750" y="363" as="targetPoint" />
          </mxGeometry>
        </mxCell>
        <mxCell id="_cLSloztdKRhmM_iYa8v-88" style="edgeStyle=orthogonalEdgeStyle;rounded=0;orthogonalLoop=1;jettySize=auto;html=1;exitX=0.25;exitY=1;exitDx=0;exitDy=0;entryX=0.5;entryY=0;entryDx=0;entryDy=0;endArrow=oval;endFill=0;" edge="1" parent="1" source="_cLSloztdKRhmM_iYa8v-54" target="_cLSloztdKRhmM_iYa8v-85">
          <mxGeometry relative="1" as="geometry" />
        </mxCell>
        <mxCell id="_cLSloztdKRhmM_iYa8v-54" value="TIPO ATTIVITA" style="rounded=0;whiteSpace=wrap;html=1;" vertex="1" parent="1">
          <mxGeometry x="545" y="275" width="120" height="60" as="geometry" />
        </mxCell>
        <mxCell id="_cLSloztdKRhmM_iYa8v-55" value="&lt;span style=&quot;text-align: left;&quot;&gt;PREVEDE&lt;/span&gt;" style="rhombus;whiteSpace=wrap;html=1;" vertex="1" parent="1">
          <mxGeometry x="540" y="195" width="100" height="45" as="geometry" />
        </mxCell>
        <mxCell id="_cLSloztdKRhmM_iYa8v-56" value="1,N" style="text;strokeColor=none;fillColor=none;align=left;verticalAlign=middle;spacingLeft=4;spacingRight=4;overflow=hidden;points=[[0,0.5],[1,0.5]];portConstraint=eastwest;rotatable=0;whiteSpace=wrap;html=1;" vertex="1" parent="1">
          <mxGeometry x="510" y="160" width="40" height="30" as="geometry" />
        </mxCell>
        <mxCell id="_cLSloztdKRhmM_iYa8v-57" value="0,N" style="text;strokeColor=none;fillColor=none;align=left;verticalAlign=middle;spacingLeft=4;spacingRight=4;overflow=hidden;points=[[0,0.5],[1,0.5]];portConstraint=eastwest;rotatable=0;whiteSpace=wrap;html=1;" vertex="1" parent="1">
          <mxGeometry x="610" y="250" width="40" height="30" as="geometry" />
        </mxCell>
        <mxCell id="_cLSloztdKRhmM_iYa8v-58" value="" style="endArrow=none;html=1;rounded=0;entryX=0.5;entryY=0;entryDx=0;entryDy=0;exitX=1;exitY=1;exitDx=0;exitDy=0;" edge="1" parent="1" source="_cLSloztdKRhmM_iYa8v-41" target="_cLSloztdKRhmM_iYa8v-55">
          <mxGeometry width="50" height="50" relative="1" as="geometry">
            <mxPoint x="380" y="300" as="sourcePoint" />
            <mxPoint x="430" y="250" as="targetPoint" />
          </mxGeometry>
        </mxCell>
        <mxCell id="_cLSloztdKRhmM_iYa8v-59" value="" style="endArrow=none;html=1;rounded=0;entryX=0.5;entryY=1;entryDx=0;entryDy=0;exitX=0.5;exitY=0;exitDx=0;exitDy=0;" edge="1" parent="1" source="_cLSloztdKRhmM_iYa8v-54" target="_cLSloztdKRhmM_iYa8v-55">
          <mxGeometry width="50" height="50" relative="1" as="geometry">
            <mxPoint x="410" y="280" as="sourcePoint" />
            <mxPoint x="460" y="230" as="targetPoint" />
          </mxGeometry>
        </mxCell>
        <mxCell id="_cLSloztdKRhmM_iYa8v-62" value="" style="endArrow=oval;html=1;rounded=0;endFill=1;exitX=0;exitY=0;exitDx=0;exitDy=0;entryX=0.75;entryY=1;entryDx=0;entryDy=0;" edge="1" parent="1" source="_cLSloztdKRhmM_iYa8v-1" target="_cLSloztdKRhmM_iYa8v-63">
          <mxGeometry width="50" height="50" relative="1" as="geometry">
            <mxPoint x="425" y="250" as="sourcePoint" />
            <mxPoint x="475" y="200" as="targetPoint" />
          </mxGeometry>
        </mxCell>
        <mxCell id="_cLSloztdKRhmM_iYa8v-63" value="CF" style="text;html=1;align=center;verticalAlign=middle;whiteSpace=wrap;rounded=0;" vertex="1" parent="1">
          <mxGeometry x="25" y="20" width="60" height="30" as="geometry" />
        </mxCell>
        <mxCell id="_cLSloztdKRhmM_iYa8v-64" value="NOME" style="text;html=1;align=center;verticalAlign=middle;whiteSpace=wrap;rounded=0;" vertex="1" parent="1">
          <mxGeometry x="170" y="20" width="60" height="30" as="geometry" />
        </mxCell>
        <mxCell id="_cLSloztdKRhmM_iYa8v-66" value="" style="endArrow=oval;html=1;rounded=0;endFill=0;entryX=0.5;entryY=1;entryDx=0;entryDy=0;exitX=0.75;exitY=0;exitDx=0;exitDy=0;" edge="1" parent="1" source="_cLSloztdKRhmM_iYa8v-1" target="_cLSloztdKRhmM_iYa8v-64">
          <mxGeometry width="50" height="50" relative="1" as="geometry">
            <mxPoint x="280" y="80" as="sourcePoint" />
            <mxPoint x="330" y="30" as="targetPoint" />
          </mxGeometry>
        </mxCell>
        <mxCell id="_cLSloztdKRhmM_iYa8v-67" value="BMI" style="text;html=1;align=center;verticalAlign=middle;whiteSpace=wrap;rounded=0;" vertex="1" parent="1">
          <mxGeometry x="20" y="115" width="60" height="30" as="geometry" />
        </mxCell>
        <mxCell id="_cLSloztdKRhmM_iYa8v-72" value="SESSO" style="text;html=1;align=center;verticalAlign=middle;whiteSpace=wrap;rounded=0;" vertex="1" parent="1">
          <mxGeometry x="25" y="165" width="60" height="30" as="geometry" />
        </mxCell>
        <mxCell id="_cLSloztdKRhmM_iYa8v-73" value="ALTEZZA" style="text;html=1;align=center;verticalAlign=middle;whiteSpace=wrap;rounded=0;" vertex="1" parent="1">
          <mxGeometry x="20" y="217.5" width="60" height="30" as="geometry" />
        </mxCell>
        <mxCell id="_cLSloztdKRhmM_iYa8v-74" value="PESO" style="text;html=1;align=center;verticalAlign=middle;whiteSpace=wrap;rounded=0;" vertex="1" parent="1">
          <mxGeometry x="25" y="260" width="60" height="30" as="geometry" />
        </mxCell>
        <mxCell id="_cLSloztdKRhmM_iYa8v-75" value="DESCRIZIONE" style="text;html=1;align=center;verticalAlign=middle;whiteSpace=wrap;rounded=0;" vertex="1" parent="1">
          <mxGeometry x="20" y="410" width="95" height="30" as="geometry" />
        </mxCell>
        <mxCell id="_cLSloztdKRhmM_iYa8v-77" value="DATA FINE" style="text;html=1;align=center;verticalAlign=middle;whiteSpace=wrap;rounded=0;" vertex="1" parent="1">
          <mxGeometry x="125" y="440" width="60" height="50" as="geometry" />
        </mxCell>
        <mxCell id="_cLSloztdKRhmM_iYa8v-78" value="TIPO" style="text;html=1;align=center;verticalAlign=middle;whiteSpace=wrap;rounded=0;" vertex="1" parent="1">
          <mxGeometry x="230" y="450" width="60" height="30" as="geometry" />
        </mxCell>
        <mxCell id="_cLSloztdKRhmM_iYa8v-79" value="PROGRESSO" style="text;html=1;align=center;verticalAlign=middle;whiteSpace=wrap;rounded=0;" vertex="1" parent="1">
          <mxGeometry x="320" y="420" width="100" height="30" as="geometry" />
        </mxCell>
        <mxCell id="_cLSloztdKRhmM_iYa8v-80" value="STATO" style="text;html=1;align=center;verticalAlign=middle;whiteSpace=wrap;rounded=0;" vertex="1" parent="1">
          <mxGeometry x="340" y="345" width="60" height="30" as="geometry" />
        </mxCell>
        <mxCell id="_cLSloztdKRhmM_iYa8v-81" value="DATA INIZIO" style="text;html=1;align=center;verticalAlign=middle;whiteSpace=wrap;rounded=0;" vertex="1" parent="1">
          <mxGeometry x="320" y="280" width="60" height="30" as="geometry" />
        </mxCell>
        <mxCell id="_cLSloztdKRhmM_iYa8v-83" value="KCAL BRUCIATE" style="text;html=1;align=center;verticalAlign=middle;whiteSpace=wrap;rounded=0;" vertex="1" parent="1">
          <mxGeometry x="540" y="20" width="80" height="40" as="geometry" />
        </mxCell>
        <mxCell id="_cLSloztdKRhmM_iYa8v-84" value="DURATA" style="text;html=1;align=center;verticalAlign=middle;whiteSpace=wrap;rounded=0;" vertex="1" parent="1">
          <mxGeometry x="620" y="122.5" width="60" height="30" as="geometry" />
        </mxCell>
        <mxCell id="_cLSloztdKRhmM_iYa8v-85" value="NOME" style="text;html=1;align=center;verticalAlign=middle;whiteSpace=wrap;rounded=0;" vertex="1" parent="1">
          <mxGeometry x="545" y="380" width="60" height="30" as="geometry" />
        </mxCell>
        <mxCell id="_cLSloztdKRhmM_iYa8v-86" value="KCAL MEDIE" style="text;html=1;align=center;verticalAlign=middle;whiteSpace=wrap;rounded=0;" vertex="1" parent="1">
          <mxGeometry x="665" y="390" width="60" height="30" as="geometry" />
        </mxCell>
        <mxCell id="_cLSloztdKRhmM_iYa8v-90" value="" style="endArrow=none;dashed=1;html=1;dashPattern=1 3;strokeWidth=2;rounded=0;exitX=0;exitY=0;exitDx=0;exitDy=0;exitPerimeter=0;entryX=1;entryY=0.883;entryDx=0;entryDy=0;entryPerimeter=0;" edge="1" parent="1" source="_cLSloztdKRhmM_iYa8v-92" target="_cLSloztdKRhmM_iYa8v-18">
          <mxGeometry width="50" height="50" relative="1" as="geometry">
            <mxPoint x="123.98800000000006" y="348.98" as="sourcePoint" />
            <mxPoint x="390" y="390" as="targetPoint" />
            <Array as="points">
              <mxPoint x="460" y="380" />
            </Array>
          </mxGeometry>
        </mxCell>
        <mxCell id="_cLSloztdKRhmM_iYa8v-92" value="SI PUO SCEGLIERE" style="shape=note;whiteSpace=wrap;html=1;backgroundOutline=1;darkOpacity=0.05;" vertex="1" parent="1">
          <mxGeometry x="462.5" y="450" width="82.5" height="80" as="geometry" />
        </mxCell>
        <mxCell id="_cLSloztdKRhmM_iYa8v-93" value="" style="endArrow=oval;html=1;rounded=0;endFill=1;exitX=0;exitY=0;exitDx=0;exitDy=0;entryX=0.75;entryY=1;entryDx=0;entryDy=0;" edge="1" parent="1" source="_cLSloztdKRhmM_iYa8v-41" target="_cLSloztdKRhmM_iYa8v-94">
          <mxGeometry width="50" height="50" relative="1" as="geometry">
            <mxPoint x="410" y="70" as="sourcePoint" />
            <mxPoint x="410" y="60" as="targetPoint" />
          </mxGeometry>
        </mxCell>
        <mxCell id="_cLSloztdKRhmM_iYa8v-94" value="ID" style="text;html=1;align=center;verticalAlign=middle;whiteSpace=wrap;rounded=0;" vertex="1" parent="1">
          <mxGeometry x="380" y="30" width="60" height="30" as="geometry" />
        </mxCell>
        <mxCell id="_cLSloztdKRhmM_iYa8v-95" value="" style="endArrow=oval;html=1;rounded=0;endFill=1;exitX=0;exitY=0.5;exitDx=0;exitDy=0;entryX=0.75;entryY=1;entryDx=0;entryDy=0;" edge="1" parent="1" target="_cLSloztdKRhmM_iYa8v-96" source="_cLSloztdKRhmM_iYa8v-54">
          <mxGeometry width="50" height="50" relative="1" as="geometry">
            <mxPoint x="495" y="335" as="sourcePoint" />
            <mxPoint x="480" y="295" as="targetPoint" />
          </mxGeometry>
        </mxCell>
        <mxCell id="_cLSloztdKRhmM_iYa8v-96" value="ID" style="text;html=1;align=center;verticalAlign=middle;whiteSpace=wrap;rounded=0;" vertex="1" parent="1">
          <mxGeometry x="450" y="265" width="60" height="30" as="geometry" />
        </mxCell>
        <mxCell id="_cLSloztdKRhmM_iYa8v-97" value="" style="endArrow=oval;html=1;rounded=0;endFill=1;exitX=0;exitY=0.25;exitDx=0;exitDy=0;entryX=0.75;entryY=1;entryDx=0;entryDy=0;" edge="1" parent="1" target="_cLSloztdKRhmM_iYa8v-98" source="_cLSloztdKRhmM_iYa8v-18">
          <mxGeometry width="50" height="50" relative="1" as="geometry">
            <mxPoint x="170" y="375" as="sourcePoint" />
            <mxPoint x="105" y="350" as="targetPoint" />
          </mxGeometry>
        </mxCell>
        <mxCell id="_cLSloztdKRhmM_iYa8v-98" value="ID" style="text;html=1;align=center;verticalAlign=middle;whiteSpace=wrap;rounded=0;" vertex="1" parent="1">
          <mxGeometry x="75" y="320" width="60" height="30" as="geometry" />
        </mxCell>
      </root>
    </mxGraphModel>
  </diagram>
</mxfile>
